name Walk3.mot
datacolumns 19
datarows 20
range 4.49500000 4.59000000
endheader

                time	   L_ground_force_vx	   L_ground_force_vy	   L_ground_force_vz	   L_ground_force_px	   L_ground_force_py	   L_ground_force_pz	   R_ground_force_vx	   R_ground_force_vy	   R_ground_force_vz	   R_ground_force_px	   R_ground_force_py	   R_ground_force_pz	   L_ground_torque_x	   L_ground_torque_y	   L_ground_torque_z	   R_ground_torque_x	   R_ground_torque_y	   R_ground_torque_z	
          4.49500000	          0.11049943	          0.32198316	         -0.00430848	         -0.00011161	          0.00000000	         -0.00001590	        -22.11930128	        885.47138557	        -65.80365695	          0.25323599	          0.00000000	          0.11762618	          0.00000000	          0.00005001	          0.00000000	          0.00000000	         10.38467238	          0.00000000	
          4.50000000	          0.09334669	          0.27435810	         -0.00321763	         -0.00021621	          0.00000000	         -0.00005770	        -20.96745839	        885.02216679	        -64.99046518	          0.25472709	          0.00000000	          0.11757785	          0.00000000	          0.00013948	          0.00000000	          0.00000000	         10.14399343	          0.00000000	
          4.50500000	          0.07496437	          0.22211866	         -0.00226361	         -0.00026618	          0.00000000	         -0.00007995	        -19.79217081	        884.73744903	        -64.28963391	          0.25622108	          0.00000000	          0.11753598	          0.00000000	          0.00018582	          0.00000000	          0.00000000	          9.90303426	          0.00000000	
          4.51000000	          0.05724737	          0.17105162	         -0.00147279	         -0.00027718	          0.00000000	         -0.00008789	        -18.57616296	        884.64306026	        -63.74327962	          0.25771303	          0.00000000	          0.11750356	          0.00000000	          0.00020085	          0.00000000	          0.00000000	          9.65976647	          0.00000000	
          4.51500000	          0.04135823	          0.12477520	         -0.00084918	         -0.00026231	          0.00000000	         -0.00008603	        -17.30703739	        884.76428450	        -63.38113676	          0.25919888	          0.00000000	          0.11748340	          0.00000000	          0.00019459	          0.00000000	          0.00000000	          9.41224180	          0.00000000	
          4.52000000	          0.02789790	          0.08523082	         -0.00038210	         -0.00023203	          0.00000000	         -0.00007803	        -15.97849788	        885.12838907	        -63.21919137	          0.26067675	          0.00000000	          0.11747712	          0.00000000	          0.00017520	          0.00000000	          0.00000000	          9.15862896	          0.00000000	
          4.52500000	          0.01705966	          0.05313105	         -0.00005236	         -0.00019426	          0.00000000	         -0.00006673	        -14.59002170	        885.76280419	        -63.25986198	          0.26214590	          0.00000000	          0.11748432	          0.00000000	          0.00014890	          0.00000000	          0.00000000	          8.89760423	          0.00000000	
          4.53000000	          0.00876009	          0.02834406	          0.00016324	         -0.00015467	          0.00000000	         -0.00005421	        -13.14718411	        886.69398944	        -63.49304316	          0.26360568	          0.00000000	          0.11750401	          0.00000000	          0.00012026	          0.00000000	          0.00000000	          8.62889211	          0.00000000	
          4.53500000	          0.00274493	          0.01020697	          0.00028859	         -0.00011706	          0.00000000	         -0.00004189	        -11.66197803	        887.94463279	        -63.89683233	          0.26505568	          0.00000000	          0.11753511	          0.00000000	          0.00009238	          0.00000000	          0.00000000	          8.35304862	          0.00000000	
          4.54000000	         -0.00132958	         -0.00223124	          0.00034615	         -0.00008368	          0.00000000	         -0.00003068	        -10.15135757	        889.53048277	        -64.43983055	          0.26649545	          0.00000000	          0.11757616	          0.00000000	          0.00006720	          0.00000000	          0.00000000	          8.07158618	          0.00000000	
          4.54500000	         -0.00383732	         -0.01003115	          0.00035569	         -0.00005565	          0.00000000	         -0.00002106	         -8.63406005	        891.46057629	        -65.08493968	          0.26792514	          0.00000000	          0.11762527	          0.00000000	          0.00004574	          0.00000000	          0.00000000	          7.78690532	          0.00000000	
          4.55000000	         -0.00514200	         -0.01423975	          0.00033367	         -0.00003328	          0.00000000	         -0.00001323	         -7.12812823	        893.73985733	        -65.79391126	          0.26934657	          0.00000000	          0.11768008	          0.00000000	          0.00002835	          0.00000000	          0.00000000	          7.50162280	          0.00000000	
          4.55500000	         -0.00557200	         -0.01581245	          0.00029316	         -0.00001630	          0.00000000	         -0.00000716	         -5.64791479	        896.36732897	        -66.53083610	          0.27076175	          0.00000000	          0.11773800	          0.00000000	          0.00001497	          0.00000000	          0.00000000	          7.21795158	          0.00000000	
          4.56000000	         -0.00540707	         -0.01557041	          0.00024400	         -0.00000412	          0.00000000	         -0.00000270	         -4.20143262	        899.33242261	        -67.26433468	          0.27217195	          0.00000000	          0.11779688	          0.00000000	          0.00000520	          0.00000000	          0.00000000	          6.93722793	          0.00000000	
          4.56500000	         -0.00487367	         -0.01418377	          0.00019318	          0.00000401	          0.00000000	          0.00000037	         -2.78979753	        902.61436879	        -67.96938737	          0.27357784	          0.00000000	          0.11785637	          0.00000000	         -0.00000148	          0.00000000	          0.00000000	          6.65964222	          0.00000000	
          4.57000000	         -0.00414616	         -0.01217278	          0.00014531	          0.00000891	          0.00000000	          0.00000231	         -1.40738280	        906.18178549	        -68.62895969	          0.27497932	          0.00000000	          0.11791721	          0.00000000	         -0.00000564	          0.00000000	          0.00000000	          6.38431391	          0.00000000	
          4.57500000	         -0.00335172	         -0.00992045	          0.00010312	          0.00001135	          0.00000000	          0.00000337	         -0.04280676	        909.99132370	        -69.23412503	          0.27637563	          0.00000000	          0.11798114	          0.00000000	         -0.00000787	          0.00000000	          0.00000000	          6.10941450	          0.00000000	
          4.58000000	         -0.00257717	         -0.00769149	          0.00006790	          0.00001202	          0.00000000	          0.00000379	          1.31963537	        913.98497555	        -69.78308392	          0.27776590	          0.00000000	          0.11805064	          0.00000000	         -0.00000867	          0.00000000	          0.00000000	          5.83276356	          0.00000000	
          4.58500000	         -0.00187665	         -0.00565379	          0.00003995	          0.00001149	          0.00000000	          0.00000375	          2.69765135	        918.08979971	        -70.27984329	          0.27914939	          0.00000000	          0.11812822	          0.00000000	         -0.00000850	          0.00000000	          0.00000000	          5.55227633	          0.00000000	
          4.59000000	         -0.00127900	         -0.00389991	          0.00001887	          0.00001025	          0.00000000	          0.00000344	          4.10734445	        922.22624292	        -70.73289643	          0.28052695	          0.00000000	          0.11821738	          0.00000000	         -0.00000772	          0.00000000	          0.00000000	          5.26597638	          0.00000000	
